# xmcd
#
# Track frame offsets: 
#        150
#        15322
#        42207
#        59347
#        77992
#        99455
#        113170
#        124407
#        154507
#        170297
#        186570
#        215307
#
# Disc length: 3155 seconds
#
# Revision: 2
# Processed by: cddbd v1.5.2PL0 Copyright (c) Steve Scherf et al.
# Submitted via: ExactAudioCopy v0.99pb5
#
DISCID=9a0c510c
DTITLE=K.D. Lang - Drag
DYEAR=1997
DGENRE=Crossover
TTITLE0=Don't Smoke in Bed
TTITLE1=The Air That I Breathe
TTITLE2=Smoke Dreams
TTITLE3=My Last Cigarette
TTITLE4=The Joker
TTITLE5=Theme From The Valley of the Dolls
TTITLE6=Your Smoke Screen
TTITLE7=My Old Addiction
TTITLE8=Till the Heart Caves In
TTITLE9=Smoke Rings
TTITLE10=Hain't it Funny?
TTITLE11=Love is Like a Cigarette
EXTD=
EXTT0=
EXTT1=
EXTT2=
EXTT3=
EXTT4=
EXTT5=
EXTT6=
EXTT7=
EXTT8=
EXTT9=
EXTT10=
EXTT11=
PLAYORDER=
